# xmcd CD database file
#
# Track frame offsets:
#	150
#	12992
#	25917
#	42639
#	59799
#	79564
#	96082
#	117879
#	136368
#	149003
#	172369
#	183669
#	210132
#	223798
#
# Disc length: 3154 seconds
#
# Revision: 0
# Processed by: cddbd v1.5.2PL0 Copyright (c) Steve Scherf et al.
# Submitted via: jetAudio 7
#
DISCID=d60c500e
DTITLE=Karen Zoid - (069) Poles Apart
DYEAR=1900
DGENRE=CD No 069
TTITLE0=Set Of Wheels (Karoo Anthem)
TTITLE1=Yuppie Scum
TTITLE2=Afrikaners Is Pleserig
TTITLE3=Southern Sky
TTITLE4=Waitress
TTITLE5=Maak Nie Regtig Saak Nie
TTITLE6=Whore
TTITLE7=Whole In One
TTITLE8=Katriena
TTITLE9=Inspector Holmes
TTITLE10=Engel
TTITLE11=Callback
TTITLE12=Vleesbaai
TTITLE13=Taxi (Bonus Track)
EXTD=
EXTT0=
EXTT1=
EXTT2=
EXTT3=
EXTT4=
EXTT5=
EXTT6=
EXTT7=
EXTT8=
EXTT9=
EXTT10=
EXTT11=
EXTT12=
EXTT13=
PLAYORDER=
